{
  "asset": {
    "generator": "Khronos glTF Blender I/O v1.8.19",
    "version": "2.0"
  },
  "scene": 0,
  "scenes": [
    {
      "name": "Scene",
      "nodes": [
        0
      ]
    }
  ],
  "nodes": [
    {
      "mesh": 0,
      "name": "Icosphere"
    }
  ],
  "meshes": [
    {
      "name": "Icosphere",
      "primitives": [
        {
          "attributes": {
            "POSITION": 0,
            "NORMAL": 1,
            "TEXCOORD_0": 2
          },
          "indices": 3
        }
      ]
    }
  ],
  "accessors": [
    {
      "bufferView": 0,
      "componentType": 5126,
      "count": 240,
      "max": [
        0.9185164570808411,
        0.8882877230644226,
        0.8735597729682922
      ],
      "min": [
        -0.9185165166854858,
        -0.8882878422737122,
        -0.8735597729682922
      ],
      "type": "VEC3"
    },
    {
      "bufferView": 1,
      "componentType": 5126,
      "count": 240,
      "type": "VEC3"
    },
    {
      "bufferView": 2,
      "componentType": 5126,
      "count": 240,
      "type": "VEC2"
    },
    {
      "bufferView": 3,
      "componentType": 5123,
      "count": 468,
      "type": "SCALAR"
    }
  ],
  "bufferViews": [
    {
      "buffer": 0,
      "byteLength": 2880,
      "byteOffset": 0
    },
    {
      "buffer": 0,
      "byteLength": 2880,
      "byteOffset": 2880
    },
    {
      "buffer": 0,
      "byteLength": 1920,
      "byteOffset": 5760
    },
    {
      "buffer": 0,
      "byteLength": 936,
      "byteOffset": 7680
    }
  ],
  "buffers": [
    {
      "uri": "hex-sphere_data.bin",
      "byteLength": 8616
    }
  ]
}